<svg width="100" height="100" viewBox="0 0 100 100" fill="none" xmlns="http://www.w3.org/2000/svg">
    <path
        d="M49.3491 46.0888C49.3491 46.0888 54.3174 38.1007 61.5262 39.4645C68.735 40.8284 72.5342 46.0888 72.0471 55.3434C71.56 64.5979 53.9277 75.606 44.2835 72.5861C34.6393 69.5662 26.2615 62.747 26.846 52.0312C27.4305 41.3155 40.192 35.0808 49.3491 46.0888Z"
        fill="#F7EB4B" />
    <path
        d="M11.6002 76.1647C10.4234 75.7327 8.96942 75.2086 8.36905 75C7.76867 74.7915 6.09003 74.1937 4.63873 73.6715L2 72.7221L3.57574 69.9332C4.44239 68.3993 5.59634 66.3584 6.14006 65.3978C6.68378 64.4372 7.4728 63.0421 7.89343 62.2976L8.65822 60.9441L8.71266 59.8525C8.74261 59.2521 8.7774 56.3834 8.78998 53.4776C8.83835 42.3042 9.22281 36.0866 10.086 32.5191C10.5068 30.7796 10.8681 29.9327 11.4285 29.3724C12.1196 28.6812 12.6063 29.0334 12.9408 30.4669C13.3264 32.1194 13.4337 33.8565 13.4369 38.5012C13.4397 42.5138 13.4546 42.6814 13.8368 43.0085C14.3257 43.4268 14.8638 43.1778 14.9907 42.4744C15.0297 42.2583 15.0699 41.4134 15.08 40.5969C15.1686 33.4505 16.2907 27.8174 18.0849 25.5108C18.7442 24.6633 19.3846 24.2345 20.2614 24.0535C20.9175 23.9181 21.3632 24.0368 21.7184 24.4414C22.0793 24.8524 22.1782 25.2852 22.1768 26.4473C22.175 27.955 21.8812 29.5641 20.6379 34.8769C20.1608 36.9155 19.7522 38.9729 19.5537 40.336C19.2208 42.6212 19.3163 43.4331 19.904 43.3156C20.563 43.1837 20.9139 42.6753 21.2411 41.378C22.0186 38.295 23.1704 35.6515 24.7769 33.2627C26.8547 30.1732 29.632 27.7351 33.0587 25.9923C33.683 25.6748 33.6955 25.6724 34.248 25.767C34.9742 25.8914 35.577 26.1979 35.9131 26.6136C36.1595 26.9182 36.1824 27.0008 36.1787 27.5717C36.1741 28.2798 36.0081 28.7367 35.365 29.812C34.6466 31.013 33.1326 32.8742 30.9939 35.1853C28.1985 38.206 27.0635 39.6208 26.5284 40.7519C26.2153 41.4138 26.2072 41.6325 26.4855 41.9107C26.6537 42.079 26.7898 42.1249 27.1186 42.1244C27.6959 42.1234 28.2211 41.7924 28.8495 41.0335C32.0475 37.1715 36.128 35.5001 40.3632 36.3173C42.595 36.7479 44.8508 37.9524 46.502 39.5949C48.67 41.7516 49.2468 44.1383 47.9072 45.4091C47.2871 45.9973 47.0768 46.0957 46.4437 46.0936C45.5719 46.0906 45.0436 45.7688 43.026 44.0117C40.8781 42.1411 39.5995 41.6055 37.5403 41.7139C35.5785 41.8172 33.9218 42.5851 32.4736 44.0622C29.6593 46.9329 28.558 51.6869 29.6752 56.1421C30.4026 59.0429 32.1495 61.8351 34.488 63.8348C36.5693 65.6144 37.7984 66.3174 42.0336 68.1498C45.9923 69.8626 48.0468 71.1627 48.7849 72.4222C49.0952 72.9517 49.1009 73.6086 48.8003 74.2051C48.389 75.0217 47.2595 75.8594 46.2592 76.09C45.6767 76.2243 43.9348 76.1998 43.113 76.0458C42.062 75.8487 40.4842 75.4455 38.9772 74.9889C35.0753 73.8066 32.814 73.2504 30.5466 72.9152C24.8486 72.073 19.8002 73.1568 15.1387 76.223C14.5152 76.6331 13.9454 76.9645 13.8724 76.9594C13.7994 76.9544 12.7769 76.5967 11.6002 76.1647V76.1647Z"
        fill="#0B8742" />
    <path
        d="M84.0808 76.2969C82.6147 75.3158 80.332 74.1738 78.9555 73.7328C78.6098 73.622 78.3506 73.4931 78.3795 73.4463C78.4085 73.3995 78.3901 73.3871 78.3388 73.4189C78.2874 73.4506 77.7629 73.3587 77.1732 73.2147C72.4416 72.0593 67.8653 72.5526 59.6818 75.1002C58.5621 75.4487 56.6762 75.9157 55.8311 76.0536C54.4941 76.2719 52.8117 76.1962 52.2507 75.8926C52.1546 75.8406 52.0271 75.7899 51.9674 75.7798C51.7649 75.7459 50.9848 75.1209 50.6891 74.7557C49.8192 73.6815 49.8655 72.7525 50.839 71.7457C51.9278 70.6196 53.5622 69.6945 57.5792 67.9306C58.635 67.467 59.9704 66.8501 60.5468 66.5597C65.4452 64.0914 68.5594 60.2508 69.5966 55.3988C69.863 54.1524 69.8886 51.3207 69.6443 50.1187C69.1431 47.6532 68.0259 45.4422 66.5316 43.9589C65.7804 43.2132 65.1358 42.7605 64.2313 42.3433C63.2974 41.9126 62.6705 41.7686 61.5074 41.7176C59.3418 41.6227 58.1084 42.1583 55.8311 44.1826C54.5736 45.3005 53.6771 45.9116 53.0875 46.0531C52.3511 46.2297 51.6772 45.9796 51.089 45.3113C50.2958 44.4102 50.2576 43.1919 50.9769 41.7361C51.3327 41.016 52.0147 40.0953 52.1365 40.1706C52.1909 40.2042 52.2098 40.1917 52.1793 40.1424C52.1354 40.0713 52.9173 39.267 53.6043 38.6767C53.9584 38.3724 54.9855 37.7248 55.6197 37.4059C58.5866 35.9142 61.7847 35.7182 64.6784 36.8509C65.5266 37.1829 66.9221 37.9385 67.2519 38.2443C67.3783 38.3615 67.5098 38.4573 67.5442 38.4573C67.7582 38.4573 69.6941 40.3419 70.3487 41.1875C70.7957 41.7649 71.2434 42.0549 71.7651 42.105C72.0018 42.1278 72.2909 42.1224 72.4075 42.0932C72.6715 42.0269 72.8478 41.6296 72.7651 41.2871C72.6224 40.6959 71.9608 39.6062 71.1609 38.6451C70.924 38.3603 70.7574 38.1001 70.7907 38.0668C70.8241 38.0334 70.81 38.0192 70.7594 38.0353C70.7088 38.0513 70.3618 37.7107 69.9883 37.2784C69.6148 36.8461 69.1399 36.3156 68.9331 36.0995C67.7999 34.9154 65.405 32.1344 65.4524 32.0576C65.4853 32.0045 65.4644 31.9949 65.401 32.0341C65.3331 32.0761 65.2769 32.0333 65.2464 31.9166C65.22 31.8157 65.1684 31.7331 65.1317 31.7331C65.0034 31.7331 64.3379 30.7682 64.3985 30.67C64.4335 30.6134 64.4211 30.5948 64.3696 30.6266C64.32 30.6573 64.1716 30.5194 64.0398 30.3202C63.6464 29.7258 63.2985 29.1133 63.3542 29.1133C63.3828 29.1133 63.362 29.0599 63.3078 28.9947C63.1511 28.8059 62.8609 27.8901 62.8609 27.5845C62.8609 27.2366 63.016 26.7637 63.2008 26.5477C63.5419 26.149 64.6045 25.7076 65.2232 25.7076C65.5263 25.7076 67.0696 26.5185 68.1863 27.2646C72.1346 29.9024 74.8208 33.2363 76.7013 37.833C76.9243 38.3782 77.0849 38.8461 77.0581 38.8729C77.0313 38.8997 77.0489 38.9691 77.0972 39.0273C77.1996 39.1507 77.5329 40.2344 77.8438 41.4552C77.964 41.9273 78.1606 42.4691 78.2805 42.6591C78.6198 43.1966 79.196 43.4803 79.5249 43.2718C80.0071 42.966 79.6156 39.9166 78.447 34.8769C77.167 29.3563 76.9204 27.9968 76.9211 26.4648C76.9217 25.219 77.0083 24.839 77.3854 24.4285C78.0239 23.7335 79.3484 23.9368 80.4121 24.8931C80.6532 25.1099 80.8247 25.329 80.7932 25.3799C80.7618 25.4309 80.7756 25.4481 80.8239 25.4182C80.9043 25.3686 81.1295 25.6752 81.6138 26.4935C82.0556 27.24 82.6151 28.8896 82.9794 30.5195C83.5758 33.1881 83.8807 36.1172 83.9828 40.1602C84.0351 42.2303 84.0677 42.6487 84.1956 42.8879C84.4585 43.38 85.026 43.3374 85.4271 42.7954C85.6056 42.5544 85.6099 42.46 85.6211 38.5601C85.6325 34.6074 85.7103 32.9847 85.9649 31.3857C86.1219 30.3992 86.3375 29.6181 86.4359 29.6789C86.4749 29.703 86.5015 29.6544 86.4949 29.5709C86.4883 29.4873 86.5306 29.4283 86.5889 29.4398C86.6479 29.4513 86.674 29.4059 86.6476 29.3373C86.5851 29.1742 86.9245 28.9974 87.1781 29.061C87.5827 29.1626 88.3669 30.2009 88.2193 30.4397C88.1849 30.4954 88.1979 30.5134 88.2495 30.4815C88.357 30.4151 88.4594 30.6506 88.7527 31.6379C89.8023 35.1716 90.2679 42.059 90.285 54.3072C90.2887 56.9488 90.3234 59.5425 90.362 60.0708C90.4244 60.9232 90.4632 61.0835 90.7063 61.4937C90.857 61.748 90.9803 61.9703 90.9803 61.9877C90.9803 62.0051 91.2092 62.4062 91.4891 62.879C91.769 63.3517 92.1161 63.9547 92.2605 64.2188C92.4049 64.483 92.7065 65.022 92.9306 65.4165C93.1547 65.8111 93.3381 66.1713 93.3381 66.217C93.3381 66.2627 93.3688 66.3132 93.4062 66.3292C93.4437 66.3452 93.7025 66.771 93.9813 67.2753C94.2601 67.7796 94.5233 68.2512 94.5662 68.3232C94.6091 68.3952 94.7896 68.7096 94.9674 69.0218C95.1451 69.334 95.5717 70.0807 95.9154 70.681C96.7864 72.2025 97.0403 72.6842 96.9949 72.7296C96.9733 72.7511 96.2695 73.0097 95.4307 73.3041C94.0054 73.8044 91.4931 74.7046 90.1943 75.1804C89.8821 75.2947 89.2927 75.5046 88.8844 75.6468C88.4761 75.789 87.4777 76.1446 86.6656 76.437C85.8535 76.7294 85.1655 76.9686 85.1368 76.9686C85.108 76.9686 84.6328 76.6663 84.0808 76.2969V76.2969Z"
        fill="#E11D23" />
    <path
        d="M84.0808 76.2969C82.6147 75.3158 80.332 74.1738 78.9555 73.7328C78.6098 73.622 78.3506 73.4931 78.3795 73.4463C78.4085 73.3995 78.3901 73.3871 78.3388 73.4189C78.2874 73.4506 77.7629 73.3587 77.1732 73.2147C72.4416 72.0593 67.8653 72.5526 59.6818 75.1002C58.5621 75.4487 56.6762 75.9157 55.8311 76.0536C54.4941 76.2719 52.8117 76.1962 52.2507 75.8926C52.1546 75.8406 52.0271 75.7899 51.9674 75.7798C51.7649 75.7459 50.9848 75.1209 50.6891 74.7557C49.8192 73.6815 49.8655 72.7525 50.839 71.7457C51.9278 70.6196 53.5622 69.6945 57.5792 67.9306C58.635 67.467 59.9704 66.8501 60.5468 66.5597C65.4452 64.0914 68.5594 60.2508 69.5966 55.3988C69.863 54.1524 69.8886 51.3207 69.6443 50.1187C69.1431 47.6532 68.0259 45.4422 66.5316 43.9589C65.7804 43.2132 65.1358 42.7605 64.2313 42.3433C63.2974 41.9126 62.6705 41.7686 61.5074 41.7176C59.3418 41.6227 58.1084 42.1583 55.8311 44.1826C54.5736 45.3005 53.6771 45.9116 53.0875 46.0531C52.3511 46.2297 51.6772 45.9796 51.089 45.3113C50.2958 44.4102 50.2576 43.1919 50.9769 41.7361C51.3327 41.016 52.0147 40.0953 52.1365 40.1706C52.1909 40.2042 52.2098 40.1917 52.1793 40.1424C52.1354 40.0713 52.9173 39.267 53.6043 38.6767C53.9584 38.3724 54.9855 37.7248 55.6197 37.4059C58.5866 35.9142 61.7847 35.7182 64.6784 36.8509C65.5266 37.1829 66.9221 37.9385 67.2519 38.2443C67.3783 38.3615 67.5098 38.4573 67.5442 38.4573C67.7582 38.4573 69.6941 40.3419 70.3487 41.1875C70.7957 41.7649 71.2434 42.0549 71.7651 42.105C72.0018 42.1278 72.2909 42.1224 72.4075 42.0932C72.6715 42.0269 72.8478 41.6296 72.7651 41.2871C72.6224 40.6959 71.9608 39.6062 71.1609 38.6451C70.924 38.3603 70.7574 38.1001 70.7907 38.0668C70.8241 38.0334 70.81 38.0192 70.7594 38.0353C70.7088 38.0513 70.3618 37.7107 69.9883 37.2784C69.6148 36.8461 69.1399 36.3156 68.9331 36.0995C67.7999 34.9154 65.405 32.1344 65.4524 32.0576C65.4853 32.0045 65.4644 31.9949 65.401 32.0341C65.3331 32.0761 65.2769 32.0333 65.2464 31.9166C65.22 31.8157 65.1684 31.7331 65.1317 31.7331C65.0034 31.7331 64.3379 30.7682 64.3985 30.67C64.4335 30.6134 64.4211 30.5948 64.3696 30.6266C64.32 30.6573 64.1716 30.5194 64.0398 30.3202C63.6464 29.7258 63.2985 29.1133 63.3542 29.1133C63.3828 29.1133 63.362 29.0599 63.3078 28.9947C63.1511 28.8059 62.8609 27.8901 62.8609 27.5845C62.8609 27.2366 63.016 26.7637 63.2008 26.5477C63.5419 26.149 64.6045 25.7076 65.2232 25.7076C65.5263 25.7076 67.0696 26.5185 68.1863 27.2646C72.1346 29.9024 74.8208 33.2363 76.7013 37.833C76.9243 38.3782 77.0849 38.8461 77.0581 38.8729C77.0313 38.8997 77.0489 38.9691 77.0972 39.0273C77.1996 39.1507 77.5329 40.2344 77.8438 41.4552C77.964 41.9273 78.1606 42.4691 78.2805 42.6591C78.6198 43.1966 79.196 43.4803 79.5249 43.2718C80.0071 42.966 79.6156 39.9166 78.447 34.8769C77.167 29.3563 76.9204 27.9968 76.9211 26.4648C76.9217 25.219 77.0083 24.839 77.3854 24.4285C78.0239 23.7335 79.3484 23.9368 80.4121 24.8931C80.6532 25.1099 80.8247 25.329 80.7932 25.3799C80.7618 25.4309 80.7756 25.4481 80.8239 25.4182C80.9043 25.3686 81.1295 25.6752 81.6138 26.4935C82.0556 27.24 82.6151 28.8896 82.9794 30.5195C83.5758 33.1881 83.8807 36.1172 83.9828 40.1602C84.0351 42.2303 84.0677 42.6487 84.1956 42.8879C84.4585 43.38 85.026 43.3374 85.4271 42.7954C85.6056 42.5544 85.6099 42.46 85.6211 38.5601C85.6325 34.6074 85.7103 32.9847 85.9649 31.3857C86.1219 30.3992 86.3375 29.6181 86.4359 29.6789C86.4749 29.703 86.5015 29.6544 86.4949 29.5709C86.4883 29.4873 86.5306 29.4283 86.5889 29.4398C86.6479 29.4513 86.674 29.4059 86.6476 29.3373C86.5851 29.1742 86.9245 28.9974 87.1781 29.061C87.5827 29.1626 88.3669 30.2009 88.2193 30.4397C88.1849 30.4954 88.1979 30.5134 88.2495 30.4815C88.357 30.4151 88.4594 30.6506 88.7527 31.6379C89.8023 35.1716 90.2679 42.059 90.285 54.3072C90.2887 56.9488 90.3234 59.5425 90.362 60.0708C90.4244 60.9232 90.4632 61.0835 90.7063 61.4937C90.857 61.748 90.9803 61.9703 90.9803 61.9877C90.9803 62.0051 91.2092 62.4062 91.4891 62.879C91.769 63.3517 92.1161 63.9547 92.2605 64.2188C92.4049 64.483 92.7065 65.022 92.9306 65.4165C93.1547 65.8111 93.3381 66.1713 93.3381 66.217C93.3381 66.2627 93.3688 66.3132 93.4062 66.3292C93.4437 66.3452 93.7025 66.771 93.9813 67.2753C94.2601 67.7796 94.5233 68.2512 94.5662 68.3232C94.6091 68.3952 94.7896 68.7096 94.9674 69.0218C95.1451 69.334 95.5717 70.0807 95.9154 70.681C96.7864 72.2025 97.0403 72.6842 96.9949 72.7296C96.9733 72.7511 96.2695 73.0097 95.4307 73.3041C94.0054 73.8044 91.4931 74.7046 90.1943 75.1804C89.8821 75.2947 89.2927 75.5046 88.8844 75.6468C88.4761 75.789 87.4777 76.1446 86.6656 76.437C85.8535 76.7294 85.1655 76.9686 85.1368 76.9686C85.108 76.9686 84.6328 76.6663 84.0808 76.2969V76.2969Z"
        fill="#E11D23" />
</svg>