<svg width="1088" height="728" viewBox="0 0 1088 728" fill="none" xmlns="http://www.w3.org/2000/svg">
<path d="M542.205 252.943C542.205 252.943 599.097 161.469 681.647 177.087C764.196 192.704 807.702 252.943 802.124 358.919C796.547 464.894 594.635 590.949 484.198 556.368C373.76 521.786 277.824 443.699 284.517 320.99C291.21 198.282 437.345 126.888 542.205 252.943Z" fill="#FFE600"/>
<path d="M419.858 365.041C414.308 363.288 408.333 357.713 405.753 351.881C404.704 349.508 403.341 343.799 402.725 339.193L401.604 330.818L405.372 323.936C410.093 315.313 415.479 308.723 424.433 300.618C435.067 290.991 438.529 288.402 449.933 281.545C455.708 278.073 461.782 274.295 463.43 273.149C466.919 270.724 468.156 270.86 472.455 274.139C474.197 275.467 476.03 276.564 476.528 276.576C481.501 276.698 485.464 288.024 481.811 291.676C480.795 292.692 474.67 296.178 468.199 299.423C450.695 308.2 436.739 319.638 425.696 334.255C419.799 342.062 420.474 343.052 431.698 343.062C436.777 343.066 440.933 342.78 440.933 342.425C440.933 342.071 443.071 341.482 445.683 341.117C453.201 340.067 471.933 335.243 471.933 334.357C471.933 333.915 471.272 333.554 470.465 333.554C469.657 333.554 469.222 332.965 469.498 332.246C469.774 331.526 469.085 329.882 467.967 328.593C466.779 327.223 465.933 324.831 465.933 322.842C465.933 320.826 465.525 319.688 464.933 320.054C463.512 320.932 463.692 318.246 465.183 316.331C465.871 315.448 468.621 313.361 471.295 311.693C476.109 308.69 476.184 308.678 478.795 310.49C480.246 311.497 485.346 314.408 490.128 316.96C494.91 319.511 500.578 323.389 502.722 325.576C504.867 327.764 507.072 329.554 507.624 329.554C508.175 329.554 511.364 323.817 514.709 316.804C518.054 309.792 523.748 297.898 527.362 290.373C530.976 282.849 533.948 276.324 533.965 275.873C533.982 275.423 534.577 274.291 535.286 273.358C536.486 271.778 536.911 271.819 541.504 273.953C551.087 278.406 556.189 284.541 556.35 291.804C556.396 293.867 556.147 295.554 555.797 295.554C555.447 295.554 554.858 297.569 554.489 300.031C554.12 302.493 553.394 304.769 552.875 305.09C552.357 305.41 551.933 311.946 551.933 319.613C551.933 330.764 552.208 333.554 553.306 333.554C555.008 333.554 562.217 325.84 564.326 321.762C566.569 317.424 569.639 305.42 571.03 295.554C571.688 290.879 572.801 286.154 573.502 285.054C574.203 283.954 575.516 280.475 576.421 277.323C578.342 270.625 579.247 269.796 582.232 272.002C583.443 272.897 586.501 274.986 589.029 276.645C591.557 278.304 594.627 281.444 595.852 283.623C597.823 287.13 597.943 288.013 596.894 291.319C596.243 293.373 595.035 296.128 594.209 297.442C592.556 300.068 589.5 313.66 588.45 323.054C586.939 336.558 581.578 347.458 571.433 357.652C566.857 362.251 563.252 363.837 559.133 363.064C554.315 362.16 543.351 351.529 539.603 344.128C538.051 341.062 536.342 338.554 535.805 338.554C535.268 338.554 534.359 339.904 533.783 341.554C533.208 343.204 532.4 344.554 531.987 344.554C530.862 344.554 527.538 352.91 525.315 361.327C525.13 362.027 524.181 362.894 523.206 363.254C522.231 363.614 521.208 364.218 520.933 364.596C519.548 366.503 516.087 366.463 513.608 364.513C510.718 362.24 503.507 348.052 504.459 346.512C504.785 345.985 504.601 345.554 504.051 345.554C503.501 345.554 502.768 346.013 502.421 346.573C501 348.873 491.457 352.605 474.859 357.352C465.193 360.117 455.068 362.68 452.359 363.047C449.65 363.415 446.083 364.096 444.433 364.56C438.327 366.277 424.622 366.545 419.858 365.041V365.041Z" fill="#17CB3F"/>
<path fill-rule="evenodd" clip-rule="evenodd" d="M597.433 350.625C602.689 361.005 609.436 365.622 620.885 366.674C638.893 368.328 661.291 363.221 674.933 354.35C682.634 349.343 684.981 346.477 686.407 340.344C687.493 335.674 687.407 334.145 685.716 328.033C684.654 324.195 680.852 314.979 677.266 307.554C673.68 300.129 670.812 292.929 670.892 291.554C671.227 285.819 671.38 283.298 670.495 281.218C669.793 279.565 668.435 278.191 665.994 275.706C663.103 272.765 659.337 269.957 657.624 269.466C654.899 268.684 654.124 268.946 651.424 271.563C649.727 273.208 647.67 274.554 646.852 274.554C646.035 274.554 642.264 277.479 638.472 281.054C634.679 284.629 631.204 287.554 630.75 287.554C630.295 287.554 627.788 289.731 625.178 292.392C622.569 295.053 619.934 297.415 619.323 297.642C617.65 298.263 607.693 310.329 603.694 316.579C598.905 324.065 596.767 330.629 596.186 339.625C595.803 345.55 596.075 347.943 597.433 350.625ZM665.744 331.557C664.254 334.025 655.181 338.903 646.973 341.649C643.909 342.674 636.74 343.794 630.933 344.155C621.543 344.739 620.201 344.609 618.238 342.931C616.127 341.126 616.101 340.888 617.557 336.71C621.893 324.275 641.282 304.874 648.025 306.223C649.857 306.589 650.933 306.388 650.933 305.679C650.933 305.06 652.025 304.554 653.36 304.554C655.326 304.554 656.311 305.645 658.555 310.304C660.078 313.467 662.303 317.641 663.5 319.581C666.517 324.469 667.347 328.902 665.744 331.557Z" fill="#17CB3F"/>
<path fill-rule="evenodd" clip-rule="evenodd" d="M491.927 473.253C491.93 473.913 493.396 475.842 495.183 477.54C497.859 480.082 498.997 480.527 501.626 480.056C505.33 479.393 511.933 473.943 511.933 471.548C511.933 468.943 515.069 460.217 516.669 458.367C517.472 457.439 517.863 456.249 517.537 455.722C517.211 455.195 517.617 454.506 518.439 454.19C519.261 453.875 519.933 452.928 519.933 452.085C519.933 449.263 521.416 450.534 523.407 455.064L525.381 459.554L530.907 459.538C533.946 459.53 539.133 458.871 542.433 458.074C551.288 455.936 552.933 456.078 552.933 458.983C552.933 462.043 550.535 464.484 546.792 465.232C542.722 466.046 542.616 466.761 546.016 470.483C547.813 472.451 548.792 474.423 548.473 475.429C548.102 476.596 548.982 477.664 551.374 478.952C557.652 482.333 565.773 478.969 571.041 470.806C573.948 466.302 574.083 465.651 573.617 458.326L573.125 450.598L576.59 448.457C578.496 447.279 581.077 444.701 582.326 442.726L584.598 439.137L581.221 436.846C579.364 435.585 577.4 434.554 576.857 434.554C576.314 434.554 575.607 433.868 575.286 433.03C574.849 431.894 573.846 431.667 571.333 432.139C568.422 432.685 567.846 432.451 567.084 430.412C565.869 427.161 562.357 409.787 560.891 399.771C559.983 393.572 559.216 391.24 557.839 390.504C555.97 389.503 544.005 385.591 542.743 385.567C542.364 385.56 540.388 387.917 538.353 390.804C533.321 397.945 529.615 400.762 524.706 401.178C522.464 401.368 520.514 401.643 520.372 401.789C519.232 402.958 508.933 422.081 508.933 423.029C508.933 423.699 505.096 432.193 500.407 441.905C495.718 451.617 491.61 460.92 491.278 462.579C490.946 464.238 490.314 465.819 489.872 466.092C489.431 466.365 489.711 467.818 490.495 469.321C491.279 470.824 491.924 472.594 491.927 473.253ZM545.933 436.391C545.933 436.943 544.696 437.629 543.183 437.914C538.293 438.836 526.933 439.729 526.933 439.191C526.933 437.227 540.656 417.941 541.471 418.759C541.884 419.175 545.933 435.172 545.933 436.391Z" fill="#17CB3F"/>
<path d="M428.899 479.464C425.323 478.148 420.933 470.993 420.933 466.48C420.933 464.459 421.63 460.837 422.482 458.43C424.003 454.134 423.986 454.015 421.573 451.93C416.358 447.424 414.336 439.28 417.361 434.961C418.146 433.84 420.606 432.104 422.827 431.102C426.559 429.419 427.053 429.402 429.308 430.88C432.125 432.726 432.96 432.082 434.788 426.655C436.548 421.43 436.27 418.554 434.004 418.554C431.073 418.554 425.933 410.322 425.933 405.626C425.933 403.382 426.577 401.265 427.49 400.507C428.987 399.265 443.446 394.214 454.933 390.921C473.364 385.636 479.825 384.39 489.639 384.225L499.845 384.054L505.389 389.52C509.445 393.518 510.933 395.724 510.933 397.735C510.933 401.561 508.236 402.705 498.035 403.204C482.219 403.979 461.811 408.571 459.748 411.819C459.317 412.498 458.957 413.998 458.949 415.151C458.941 416.304 458.282 418.554 457.485 420.151C456.688 421.748 455.721 425.03 455.334 427.446L454.632 431.838L460.033 431.175C463.003 430.81 469.821 430.236 475.183 429.899C483.486 429.378 484.933 429.511 484.933 430.798C484.933 431.629 485.633 432.89 486.488 433.599C490.004 436.517 490.013 438.162 486.542 442.709C482.825 447.576 486.399 446.534 453.827 452.247L445.22 453.756L442.945 458.905C441.693 461.737 440.37 466.843 440.005 470.25C439.021 479.432 435.884 482.034 428.899 479.464H428.899Z" fill="#17CB3F"/>
<path fill-rule="evenodd" clip-rule="evenodd" d="M613.043 466.916C619.219 472.202 633.94 478.718 648.433 482.579C656.707 484.783 657.447 484.841 661.733 483.611C666.708 482.185 668.607 479.195 668.394 473.127C668.144 465.989 666.505 463.751 660.96 462.98C649.687 461.412 636.621 457.483 630.867 453.932C627.604 451.918 624.933 449.944 624.933 449.546C624.933 449.148 629.423 447.333 634.911 445.512C653.529 439.334 659.894 434.071 660.714 424.178C661.068 419.917 660.586 417.339 658.424 411.918C655.248 403.955 651.787 397.208 650.618 396.699C650.169 396.503 648.144 394.671 646.118 392.626C644.091 390.581 640.546 387.66 638.239 386.135C634.341 383.558 633.779 383.45 630.276 384.606C626.118 385.978 617.618 393.929 613.72 400.093C612.342 402.271 609.842 405.521 608.164 407.313C605.433 410.231 604.824 410.463 602.351 409.523C600.831 408.945 599.048 408.68 598.388 408.933C597.248 409.37 596.561 411.889 591.813 433.054C590.702 438.004 589.389 443.357 588.895 444.95C588.401 446.544 588.224 448.215 588.502 448.664C588.779 449.114 588.315 452.15 587.47 455.412C585.702 462.236 585.492 467.163 586.933 468.054C587.483 468.394 587.933 470.014 587.933 471.655C587.933 474.814 589.929 477.499 593.761 479.495C595.659 480.484 596.721 480.408 599.509 479.085C603.256 477.307 605.385 473.991 606.461 468.258C606.845 466.209 607.565 464.282 608.059 463.976C608.554 463.67 610.797 464.993 613.043 466.916ZM638.915 420.554C638.908 421.465 636.455 423.002 632.669 424.466C622.637 428.348 618.048 429.549 617.381 428.469C616.465 426.987 621.232 419.582 626.239 414.708C630.191 410.861 630.954 410.495 632.873 411.522C635.298 412.819 638.932 418.252 638.915 420.554Z" fill="#17CB3F"/>
<path d="M109.933 597.349C96.4582 592.401 79.8082 586.4 72.9332 584.012C66.0582 581.624 46.8358 574.778 30.2166 568.798L0 557.927L18.0441 525.99C27.9683 508.425 41.1824 485.054 47.4086 474.054C53.6349 463.054 62.6701 447.079 67.4868 438.554L76.2446 423.054L76.868 410.554C77.2109 403.679 77.6094 370.829 77.7534 337.554C78.3073 209.605 82.7099 138.406 92.5939 97.554C97.4132 77.6347 101.551 67.9364 107.967 61.5199C115.882 53.6054 121.455 57.6387 125.285 74.054C129.701 92.9769 130.93 112.869 130.966 166.056C130.998 212.006 131.168 213.924 135.545 217.67C141.144 222.461 147.306 219.609 148.759 211.554C149.205 209.079 149.665 199.404 149.781 190.054C150.797 108.219 163.645 43.7142 184.192 17.3003C191.741 7.59522 199.075 2.68484 209.115 0.612946C216.628 -0.937404 221.731 0.421191 225.8 5.05484C229.932 9.76153 231.065 14.7166 231.049 28.0244C231.028 45.2896 227.664 63.7156 213.426 124.554C207.963 147.898 203.284 171.458 201.011 187.066C197.199 213.235 198.292 222.532 205.022 221.186C212.569 219.677 216.587 213.855 220.333 198.999C229.237 163.694 242.426 133.424 260.823 106.069C284.616 70.6905 316.419 42.7714 355.659 22.8144C362.809 19.178 362.952 19.151 369.278 20.2346C377.594 21.659 384.496 25.1683 388.346 29.9284C391.167 33.4169 391.429 34.3632 391.387 40.9001C391.334 49.0083 389.433 54.241 382.069 66.554C373.843 80.3073 356.505 101.621 332.015 128.085C300.004 162.676 287.007 178.877 280.88 191.829C277.294 199.409 277.201 201.913 280.388 205.099C282.315 207.027 283.873 207.552 287.638 207.546C294.249 207.535 300.263 203.744 307.459 195.054C344.08 150.83 390.806 131.69 439.305 141.048C464.861 145.979 490.694 159.772 509.601 178.58C534.427 203.277 541.033 230.608 525.693 245.159C518.592 251.896 516.184 253.022 508.933 252.998C498.95 252.964 492.9 249.279 469.797 229.158C445.201 207.737 430.559 201.604 406.979 202.845C384.515 204.028 365.542 212.821 348.959 229.737C316.732 262.609 304.121 317.048 316.914 368.065C325.244 401.283 345.248 433.257 372.027 456.156C395.859 476.535 409.935 484.585 458.433 505.568C503.765 525.182 527.291 540.07 535.743 554.492C539.296 560.556 539.362 568.078 535.92 574.909C531.209 584.259 518.276 593.853 506.821 596.493C500.151 598.031 480.203 597.751 470.794 595.987C458.758 593.73 440.691 589.113 423.433 583.884C378.752 570.345 352.858 563.976 326.893 560.138C261.644 550.494 203.834 562.905 150.453 598.016C143.314 602.712 136.789 606.507 135.953 606.449C135.117 606.391 123.408 602.296 109.933 597.349V597.349Z" fill="#17CB3F"/>
<path d="M578.741 698.304C578.517 697.617 578.582 695.56 578.884 693.734L579.433 690.415L592.933 690.415L606.433 690.415L606.738 694.985L607.043 699.554H593.095C582.82 699.554 579.04 699.225 578.741 698.304Z" fill="#17CB3F"/>
<path fill-rule="evenodd" clip-rule="evenodd" d="M1005.4 717.554C1003.14 717.554 1002.93 717.938 1002.93 722.054V726.554H1016.43H1029.93V722.054C1029.93 717.578 1029.91 717.554 1026.43 717.554H1022.93V707.554V697.554H1028.71C1032.01 697.554 1035.34 698.147 1036.46 698.936C1039.09 700.778 1045.39 713.928 1044.61 715.955C1044.27 716.834 1043.08 717.554 1041.96 717.554C1040.22 717.554 1039.93 718.197 1039.93 722.054V726.554H1052.82H1065.7L1066.2 723.954C1067.02 719.654 1065.99 717.554 1063.06 717.554C1061.04 717.554 1060.09 716.794 1059.01 714.304C1055.2 705.511 1050.68 696.918 1048.85 694.966L1046.81 692.793L1050.38 690.587C1055.96 687.14 1058.93 681.165 1058.93 673.416C1058.93 664.813 1055.74 659.609 1048.48 656.384C1043.91 654.353 1041.5 654.102 1023.18 653.744L1002.93 653.349V657.888C1002.93 662.278 1003.04 662.438 1006.18 662.741L1009.43 663.054L1009.73 688.29C1010.04 715.289 1009.7 717.554 1005.4 717.554ZM1045.66 673.848C1046.31 679.568 1043.92 684.242 1039.4 686.133C1037.53 686.914 1033.06 687.554 1029.47 687.554H1022.93V675.701V663.848L1029.18 664.219C1042.56 665.013 1044.82 666.329 1045.66 673.848Z" fill="#17CB3F"/>
<path fill-rule="evenodd" clip-rule="evenodd" d="M929.311 717.554C927.16 717.554 926.933 717.983 926.933 722.054V726.554H939.433H951.933V722.121C951.933 718.027 951.722 717.663 949.183 717.371C946.947 717.113 946.482 716.608 946.697 714.663C946.841 713.347 947.522 711.097 948.208 709.663C949.441 707.086 949.606 707.051 961.733 706.773L974.009 706.492L975.471 709.991C977.827 715.629 977.436 717.554 973.933 717.554C971.045 717.554 970.933 717.721 970.933 722.054V726.554H984.326C998.895 726.554 999.031 726.498 998.188 720.804C997.782 718.064 997.285 717.554 995.022 717.554C994.712 717.554 994.437 717.56 994.173 717.511C991.954 717.095 990.466 712.778 974.883 668.304L969.715 653.554H957.324H944.933V658.054C944.933 662.388 945.044 662.554 947.933 662.554C949.816 662.554 950.933 663.068 950.933 663.932C950.933 666.025 934.027 714.736 932.779 716.241C932.179 716.963 930.619 717.554 929.311 717.554ZM967.036 681.054C969.705 689.304 971.899 696.392 971.911 696.804C971.923 697.217 967.433 697.554 961.933 697.554C956.433 697.554 951.933 697.256 951.933 696.892C951.933 696.028 959.481 672.831 961.008 669.003C962.132 666.184 962.397 666.713 967.036 681.054Z" fill="#17CB3F"/>
<path d="M877.742 723.041C877.239 718.731 877.736 717.854 880.933 717.405L883.433 717.054L883.699 689.804L883.965 662.554H880.949C878.041 662.554 877.933 662.393 877.933 658.054V653.554H904.433H930.933V662.554C930.933 670.455 930.719 671.556 929.183 671.565C928.221 671.571 925.776 671.85 923.751 672.185C920.075 672.793 920.068 672.787 919.751 668.924L919.433 665.054H908.433H897.433V674.554V684.054L910.683 684.333L923.933 684.612V690.083V695.554H910.399H896.866L897.149 706.304L897.433 717.054L902.183 717.359L906.933 717.664V722.109V726.554H892.543H878.152L877.742 723.041V723.041Z" fill="#17CB3F"/>
<path d="M705.933 722.117C705.933 717.843 706.052 717.669 709.183 717.367L712.433 717.054L712.7 690.282L712.966 663.51L709.95 662.907C707.142 662.346 706.933 661.999 706.933 657.893V653.481L716.664 653.768L726.394 654.054L734.184 666.554C738.469 673.429 745.176 684.352 749.089 690.828C753.002 697.305 756.603 702.849 757.09 703.15C757.596 703.463 757.859 694.996 757.704 683.376L757.433 663.054L754.183 662.741C751 662.434 750.683 662.1 750.683 659.054C750.683 653.199 749.827 653.554 763.933 653.554H776.933V658.054C776.933 662.199 776.734 662.554 774.409 662.554C772.619 662.554 771.6 663.3 770.909 665.119C770.355 666.575 769.933 680.414 769.933 697.119V726.554L763.683 726.546L757.433 726.538L755.026 722.296C753.005 718.732 747.958 710.524 727.827 678.053C725.978 675.07 725.967 675.175 725.95 696.303L725.933 717.554H729.433C732.915 717.554 732.933 717.578 732.933 722.054V726.554H719.433H705.933V722.117L705.933 722.117Z" fill="#17CB3F"/>
<path d="M496.933 722.054C496.933 717.938 497.144 717.554 499.398 717.554C500.826 717.554 502.306 716.726 502.915 715.588C503.594 714.32 503.873 704.634 503.701 688.338L503.433 663.054L500.183 662.741C497.052 662.439 496.933 662.265 496.933 657.991V653.554H521.933H546.933V662.423V671.292L543.183 671.912C536.454 673.025 536.08 672.868 535.744 668.804L535.433 665.054L526.183 664.767L516.933 664.479V674.017V683.554H529.433H541.933V689.054V694.554H529.433H516.933V705.054V715.554H526.233C536.622 715.554 537.933 714.91 537.933 709.805V706.455L542.933 706.683C545.683 706.809 547.973 707.169 548.021 707.483C548.069 707.797 548.252 712.217 548.427 717.304L548.745 726.554H522.839H496.933V722.054Z" fill="#17CB3F"/>
<path d="M437.933 722.054C437.933 717.938 438.144 717.554 440.398 717.554C441.845 717.554 443.308 716.723 443.941 715.54C445.565 712.504 444.854 663.096 443.183 662.929C442.496 662.86 441.033 662.748 439.933 662.679C438.248 662.574 437.933 661.846 437.933 658.054V653.554H450.817H463.7L464.197 656.154C464.993 660.317 463.978 662.554 461.292 662.554C457.351 662.554 456.876 665.873 457.165 691.416L457.433 715.054L466.784 715.343C472.819 715.53 476.631 715.22 477.534 714.471C478.343 713.799 478.933 711.463 478.933 708.932V704.554H483.869H488.805L489.119 715.142C489.292 720.965 489.246 725.915 489.017 726.142C488.788 726.369 477.2 726.554 463.267 726.554H437.933V722.054Z" fill="#17CB3F"/>
<path fill-rule="evenodd" clip-rule="evenodd" d="M371.933 722.143C371.933 717.978 372.153 717.554 374.311 717.554C378.803 717.554 378.984 716.378 378.7 688.931L378.433 663.054L376.152 662.939C373.201 662.79 373.179 662.759 372.784 658.054L372.449 654.054H392.441C411.771 654.054 412.599 654.137 417.417 656.554C423.616 659.665 426.316 664.01 426.384 670.99C426.447 677.431 424.722 681.373 420.402 684.662L416.976 687.27L420.91 689.044C426.999 691.789 429.931 696.817 430.049 704.714C430.163 712.264 428.678 715.815 423.512 720.351C418.105 725.098 414.315 725.817 392.183 726.295L371.933 726.732V722.143ZM407.385 682.139C411.417 680.454 412.933 677.971 412.933 673.054C412.933 665.839 409.41 663.554 398.284 663.554H391.933V673.554V683.554H397.965C401.283 683.554 405.522 682.917 407.385 682.139ZM415.892 701.401C417.585 707.688 415.287 712.795 409.772 715.002V715.002C407.563 715.886 402.889 716.554 398.913 716.554H391.933V705.054V693.554L400.183 693.558C410.465 693.563 414.296 695.475 415.892 701.401Z" fill="#17CB3F"/>
<path d="M278.933 722.054C278.933 717.911 279.133 717.554 281.455 717.554C283.126 717.554 284.291 716.796 284.909 715.304C285.422 714.067 286.428 701.946 287.144 688.37L288.445 663.685L285.189 663.074C282.093 662.494 281.933 662.245 281.933 658.009V653.554H292.822H303.711L307.442 663.804C309.494 669.442 313.304 679.679 315.909 686.554C318.514 693.429 320.95 699.917 321.322 700.971C321.712 702.077 322.349 702.5 322.826 701.971C323.28 701.467 327.653 690.368 332.543 677.306L341.433 653.558L352.183 653.556L362.933 653.554V657.848C362.933 661.828 362.697 662.21 359.683 663.098C356.568 664.015 356.435 664.262 356.478 669.054C356.548 676.906 357.929 704.399 358.601 711.304L359.21 717.554H362.571C365.892 717.554 365.933 717.609 365.933 722.083V726.612L352.777 726.333C340.513 726.073 339.598 725.919 339.281 724.054C338.608 720.093 339.827 717.7 342.686 717.371L345.433 717.054L345.376 707.054C345.298 693.313 344.659 680.123 343.978 678.18C343.645 677.233 340.021 685.369 335.235 697.808L327.059 719.054H321.746H316.433L308.493 698.363C304.126 686.983 300.237 677.867 299.851 678.105C299.316 678.436 297.563 705.788 297.451 715.554C297.439 716.52 298.59 717.166 300.683 717.368C302.471 717.54 303.968 718.215 304.01 718.868C304.052 719.52 304.244 720.89 304.437 721.912C305.252 726.228 304.33 726.554 291.326 726.554H278.933V722.054Z" fill="#17CB3F"/>
<path d="M219.933 722.054C219.933 718.059 220.186 717.552 222.183 717.539C226.994 717.506 226.984 717.571 226.7 689.485C226.496 669.231 226.141 663.025 225.183 662.929C224.496 662.86 223.258 662.748 222.433 662.679C221.341 662.588 220.933 661.332 220.933 658.054V653.554H245.933H270.933V662.554C270.933 670.455 270.72 671.556 269.183 671.565C268.221 671.571 265.776 671.85 263.751 672.185C260.075 672.793 260.068 672.787 259.751 668.924L259.433 665.054H249.933H240.433L240.146 674.304L239.858 683.554H252.299H264.74L265.087 688.638C265.277 691.434 265.246 693.909 265.017 694.138C264.788 694.367 259.034 694.554 252.232 694.554H239.863L240.148 704.804L240.433 715.054H250.433H260.433L260.743 710.75L261.054 706.446L266.493 706.744L271.933 707.043V716.798V726.554H245.933H219.933V722.054Z" fill="#17CB3F"/>
<path d="M86.714 725.304C86.4757 724.617 86.3151 722.709 86.357 721.064C86.4212 718.547 86.9079 717.991 89.4332 717.555L92.4332 717.035L92.6993 689.795L92.9653 662.554H89.9493C87.0413 662.554 86.9332 662.393 86.9332 658.054V653.554L96.6832 653.563L106.433 653.572L110.85 660.814C113.279 664.796 116.694 670.305 118.44 673.055C120.186 675.805 125.174 683.866 129.524 690.967L137.433 703.88L137.706 684.497C137.855 673.836 137.757 664.538 137.487 663.835C137.217 663.13 135.632 662.554 133.965 662.554C131.039 662.554 130.933 662.398 130.933 658.054V653.554H143.933H156.933V657.988C156.933 662.081 156.722 662.446 154.183 662.738L151.433 663.054L151.169 694.804L150.905 726.554H144.516H138.126L123.081 702.304C114.806 688.967 107.583 677.379 107.031 676.554C106.345 675.531 106.091 681.728 106.23 696.054L106.433 717.054L109.683 717.368C112.814 717.669 112.933 717.843 112.933 722.118V726.554H100.04C90.6235 726.554 87.0304 726.217 86.714 725.304V725.304Z" fill="#17CB3F"/>
<path d="M26.9333 722.138C26.9333 718.026 27.1427 717.663 29.6833 717.371L32.4333 717.054L32.6994 689.804L32.9655 662.554H29.9494C27.0415 662.554 26.9333 662.393 26.9333 658.054V653.554H51.9334H76.9333V662.423V671.292L73.1833 671.912C66.4539 673.025 66.0801 672.868 65.7437 668.804L65.4334 665.054H55.9334H46.4334L46.1458 674.304L45.8583 683.554H58.8958H71.9333V689.024V694.494L59.1834 694.774L46.4334 695.054V705.054V715.054H56.4334H66.4333L67.3754 710.804C68.2691 706.773 68.5003 706.555 71.8754 706.57C73.8323 706.578 75.955 706.917 76.5926 707.322C77.2883 707.765 77.8794 711.658 78.0707 717.057L78.3895 726.054L52.6614 726.321L26.9333 726.588V722.138Z" fill="#17CB3F"/>
<path fill-rule="evenodd" clip-rule="evenodd" d="M787.16 710.738C790.971 719.062 796.329 723.869 804.927 726.676C806.305 727.126 811.483 727.366 816.433 727.209C826.867 726.879 831.621 724.939 837.931 718.437C844.552 711.615 846.377 705.373 846.408 689.452C846.433 675.859 846.431 675.846 842.933 668.99C836.908 657.18 826.988 651.714 813.536 652.794C801.862 653.731 791.297 660.957 786.827 671.061C782.191 681.543 782.347 700.226 787.16 710.738ZM832.462 700.836C830.875 708.323 828.17 712.884 824.104 714.926V714.926C820.361 716.807 816.077 717.363 811.619 716.547C802.376 714.854 797.858 707.401 797.162 692.698C796.901 687.189 797.182 681.297 797.817 678.955C800.293 669.829 807.136 663.554 814.613 663.554C824.379 663.554 830.038 668.832 832.443 680.184C834.264 688.781 834.267 692.313 832.462 700.836Z" fill="#17CB3F"/>
<path d="M656.67 725.762C643.825 721.155 636.957 709.062 636.957 691.054C636.957 677.514 639.95 669.442 647.928 661.464C654.503 654.889 663.551 652.039 675.302 652.842C679.774 653.148 685.571 654.15 688.183 655.07L692.933 656.742V666.148V675.554H687.433H681.933V670.121C681.933 663.778 681.641 663.586 671.786 663.438C661.384 663.282 654.932 667.582 652.11 676.554C650.131 682.845 649.703 690.061 650.865 697.553C652.98 711.184 658.418 716.843 669.433 716.875C672.733 716.885 676.671 716.378 678.183 715.748C680.879 714.626 680.933 714.434 680.933 706.079V697.554H676.933H672.933V693.054V688.554H686.491H700.048L699.741 692.764C699.481 696.315 699.042 697.065 696.933 697.557C694.466 698.133 694.43 698.291 694.153 709.676L693.873 721.212L690.153 723.015C680.407 727.737 665.57 728.954 656.67 725.762V725.762Z" fill="#17CB3F"/>
<path d="M170.433 725.775L164.433 724.049L164.146 715.438L163.859 706.828L167.646 706.202C174.759 705.027 174.933 705.118 174.933 710.019C174.933 715.483 176.484 716.554 184.4 716.554C194.209 716.554 198.933 712.905 198.933 705.328C198.933 701.753 193.748 697.968 184.949 695.119C174.65 691.785 172.197 690.54 168.747 686.893C165.268 683.216 163.928 679.538 163.955 673.739C164 664.116 170.305 656.39 180.422 653.557C186.239 651.929 198.739 652.753 205.183 655.189L209.933 656.985V665.27V673.554H204.433H198.933V669.677C198.933 667.544 198.371 665.35 197.683 664.802C194.02 661.881 181.968 663.238 179.433 666.858C177.892 669.057 177.453 674.138 178.554 677.009C179.326 679.021 182.674 680.78 190.982 683.541C199.48 686.365 207.632 691.327 209.898 695.054C214.223 702.168 213.252 713.545 207.824 719.353C202.398 725.158 197.63 726.912 186.433 727.224C179.244 727.423 174.747 727.016 170.433 725.775V725.775Z" fill="#17CB3F"/>
<path d="M939.926 598.863C923.138 587.628 896.998 574.551 881.235 569.5C877.277 568.232 874.309 566.755 874.64 566.219C874.971 565.684 874.761 565.542 874.173 565.906C873.585 566.269 867.579 565.217 860.826 563.568C806.643 550.337 754.24 555.986 660.528 585.158C647.707 589.15 626.11 594.497 616.433 596.077C601.123 598.576 581.857 597.709 575.433 594.233C574.333 593.637 572.873 593.056 572.189 592.941C569.87 592.552 560.937 585.395 557.551 581.214C547.59 568.913 548.12 558.274 559.267 546.745C571.736 533.85 590.452 523.256 636.452 503.058C648.542 497.749 663.833 490.685 670.433 487.359C726.526 459.095 762.188 415.115 774.065 359.554C777.116 345.281 777.409 312.855 774.611 299.09C768.872 270.858 756.078 245.54 738.967 228.554C730.365 220.015 722.984 214.831 712.626 210.054C701.931 205.121 694.753 203.472 681.433 202.888C656.636 201.801 642.511 207.935 616.433 231.116C602.033 243.916 591.768 250.914 585.016 252.534C576.583 254.557 568.866 251.693 562.13 244.04C553.048 233.722 552.61 219.77 560.847 203.099C564.921 194.854 572.73 184.311 574.125 185.173C574.748 185.558 574.965 185.415 574.616 184.85C574.113 184.036 583.067 174.826 590.933 168.066C594.989 164.581 606.75 157.166 614.013 153.514C647.987 136.432 684.609 134.188 717.746 147.158C727.458 150.96 743.438 159.613 747.215 163.115C748.662 164.456 750.168 165.554 750.562 165.554C753.013 165.554 775.181 187.135 782.677 196.818C787.796 203.43 792.922 206.75 798.897 207.325C801.607 207.585 804.917 207.524 806.252 207.189C809.276 206.43 811.294 201.881 810.348 197.958C808.714 191.188 801.138 178.71 791.978 167.704C789.265 164.443 787.357 161.463 787.739 161.082C788.121 160.7 787.959 160.537 787.38 160.721C786.801 160.904 782.828 157.004 778.55 152.054C774.273 147.104 768.836 141.029 766.467 138.554C753.49 124.995 726.066 93.1487 726.609 92.2697C726.985 91.661 726.746 91.5516 726.02 92.0001C725.243 92.4807 724.599 91.9911 724.249 90.6546C723.947 89.4993 723.357 88.554 722.937 88.554C721.467 88.554 713.846 77.5041 714.541 76.3801C714.942 75.7316 714.8 75.5186 714.21 75.8831C713.642 76.2341 711.942 74.6552 710.433 72.3746C705.928 65.5674 701.944 58.554 702.582 58.554C702.91 58.554 702.671 57.9425 702.05 57.1952C700.256 55.0335 696.933 44.5466 696.933 41.0467C696.933 37.0635 698.709 31.6476 700.825 29.1743C704.732 24.6086 716.9 19.554 723.984 19.554C727.455 19.554 745.127 28.8402 757.915 37.3833C803.128 67.5894 833.888 105.767 855.422 158.405C857.976 164.648 859.814 170.006 859.508 170.313C859.201 170.619 859.403 171.415 859.955 172.081C861.129 173.494 864.945 185.904 868.505 199.883C869.882 205.29 872.132 211.493 873.506 213.67C877.391 219.824 883.99 223.073 887.756 220.685C893.278 217.184 888.794 182.264 875.413 124.554C860.755 61.3367 857.931 45.7684 857.939 28.2245C857.946 13.9589 858.938 9.60823 863.256 4.90672C870.567 -3.05211 885.735 -0.723617 897.915 10.2275C900.676 12.7101 902.64 15.2187 902.28 15.8022C901.919 16.3857 902.077 16.583 902.631 16.2407C903.551 15.6722 906.13 19.183 911.676 28.554C916.735 37.102 923.143 55.9922 927.314 74.6566C934.144 105.215 937.635 138.756 938.804 185.054C939.403 208.76 939.777 213.55 941.241 216.29C944.251 221.924 950.75 221.436 955.343 215.231C957.387 212.47 957.436 211.39 957.565 166.731C957.695 121.468 958.586 102.886 961.501 84.5754C963.3 73.2789 965.768 64.334 966.895 65.0304C967.342 65.3065 967.646 64.7498 967.57 63.7932C967.495 62.8367 967.98 62.1611 968.647 62.292C969.323 62.4245 969.621 61.9044 969.32 61.1187C968.603 59.251 972.49 57.2261 975.394 57.9548C980.028 59.1178 989.007 71.008 987.317 73.7428C986.923 74.38 987.072 74.5863 987.663 74.2212C988.894 73.4605 990.067 76.1571 993.425 87.4639C1005.44 127.928 1010.78 206.798 1010.97 347.054C1011.01 377.304 1011.41 407.004 1011.85 413.054C1012.57 422.815 1013.01 424.65 1015.8 429.348C1017.52 432.26 1018.93 434.805 1018.93 435.005C1018.93 435.205 1021.56 439.797 1024.76 445.211C1027.97 450.625 1031.94 457.529 1033.59 460.554C1035.25 463.579 1038.7 469.751 1041.27 474.269C1043.83 478.788 1045.93 482.913 1045.93 483.436C1045.93 483.959 1046.28 484.537 1046.71 484.721C1047.14 484.904 1050.11 489.779 1053.3 495.554C1056.49 501.329 1059.51 506.729 1060 507.554C1060.49 508.379 1062.56 511.979 1064.59 515.554C1066.63 519.129 1071.51 527.679 1075.45 534.554C1085.42 551.977 1088.33 557.493 1087.81 558.013C1087.56 558.259 1079.5 561.22 1069.9 564.591C1053.57 570.321 1024.81 580.629 1009.93 586.077C1006.36 587.386 999.608 589.79 994.933 591.418C990.258 593.046 978.825 597.118 969.525 600.466C960.226 603.815 952.348 606.554 952.019 606.554C951.689 606.554 946.248 603.093 939.926 598.863V598.863Z" fill="#F52525"/>
</svg>
