<svg width="1088" height="607" viewBox="0 0 1088 607" fill="none" xmlns="http://www.w3.org/2000/svg">
<path d="M542.205 252.943C542.205 252.943 599.097 161.469 681.647 177.087C764.196 192.704 807.702 252.943 802.124 358.919C796.547 464.894 594.635 590.949 484.198 556.368C373.76 521.786 277.824 443.699 284.517 320.99C291.21 198.282 437.345 126.888 542.205 252.943Z" fill="#F7EB4B"/>
<path d="M419.858 365.041C414.308 363.288 408.333 357.713 405.753 351.881C404.704 349.508 403.341 343.799 402.725 339.193L401.604 330.818L405.372 323.936C410.093 315.313 415.479 308.723 424.433 300.618C435.067 290.991 438.529 288.402 449.933 281.545C455.708 278.073 461.782 274.295 463.43 273.149C466.919 270.724 468.156 270.86 472.455 274.139C474.197 275.467 476.03 276.564 476.528 276.576C481.501 276.698 485.464 288.024 481.811 291.676C480.795 292.692 474.67 296.178 468.199 299.423C450.695 308.2 436.739 319.638 425.696 334.255C419.799 342.062 420.474 343.052 431.698 343.062C436.777 343.066 440.933 342.78 440.933 342.425C440.933 342.071 443.071 341.482 445.683 341.117C453.201 340.067 471.933 335.243 471.933 334.357C471.933 333.915 471.272 333.554 470.465 333.554C469.657 333.554 469.222 332.965 469.498 332.246C469.774 331.526 469.085 329.882 467.967 328.593C466.779 327.223 465.933 324.831 465.933 322.842C465.933 320.826 465.525 319.688 464.933 320.054C463.512 320.932 463.692 318.246 465.183 316.331C465.871 315.448 468.621 313.361 471.295 311.693C476.109 308.69 476.184 308.678 478.795 310.49C480.246 311.497 485.346 314.408 490.128 316.96C494.91 319.511 500.578 323.389 502.722 325.576C504.867 327.764 507.072 329.554 507.624 329.554C508.175 329.554 511.364 323.817 514.709 316.804C518.054 309.792 523.748 297.898 527.362 290.373C530.976 282.849 533.948 276.324 533.965 275.873C533.982 275.423 534.577 274.291 535.286 273.358C536.486 271.778 536.911 271.819 541.504 273.953C551.087 278.406 556.189 284.541 556.35 291.804C556.396 293.867 556.147 295.554 555.797 295.554C555.447 295.554 554.858 297.569 554.489 300.031C554.12 302.493 553.394 304.769 552.875 305.09C552.357 305.41 551.933 311.946 551.933 319.613C551.933 330.764 552.208 333.554 553.306 333.554C555.008 333.554 562.217 325.84 564.326 321.762C566.569 317.424 569.639 305.42 571.03 295.554C571.688 290.879 572.801 286.154 573.502 285.054C574.203 283.954 575.516 280.475 576.421 277.323C578.342 270.625 579.247 269.796 582.232 272.002C583.443 272.897 586.501 274.986 589.029 276.645C591.557 278.304 594.627 281.444 595.852 283.623C597.823 287.13 597.943 288.013 596.894 291.319C596.243 293.373 595.035 296.128 594.209 297.442C592.556 300.068 589.5 313.66 588.45 323.054C586.939 336.558 581.578 347.458 571.433 357.652C566.857 362.251 563.252 363.837 559.133 363.064C554.315 362.16 543.351 351.529 539.603 344.128C538.051 341.062 536.342 338.554 535.805 338.554C535.268 338.554 534.359 339.904 533.783 341.554C533.208 343.204 532.4 344.554 531.987 344.554C530.862 344.554 527.538 352.91 525.315 361.327C525.13 362.027 524.181 362.894 523.206 363.254C522.231 363.614 521.208 364.218 520.933 364.596C519.548 366.503 516.087 366.463 513.608 364.513C510.718 362.24 503.507 348.052 504.459 346.512C504.785 345.985 504.601 345.554 504.051 345.554C503.501 345.554 502.768 346.013 502.421 346.573C501 348.873 491.457 352.605 474.859 357.352C465.193 360.117 455.068 362.68 452.359 363.047C449.65 363.415 446.083 364.096 444.433 364.56C438.327 366.277 424.622 366.545 419.858 365.041V365.041Z" fill="#0B8742"/>
<path fill-rule="evenodd" clip-rule="evenodd" d="M597.433 350.625C602.689 361.005 609.436 365.622 620.885 366.674C638.893 368.328 661.291 363.221 674.933 354.35C682.634 349.343 684.981 346.477 686.407 340.344C687.493 335.674 687.407 334.145 685.716 328.033C684.654 324.195 680.852 314.979 677.266 307.554C673.68 300.129 670.812 292.929 670.892 291.554C671.227 285.819 671.38 283.298 670.495 281.218C669.793 279.565 668.435 278.191 665.994 275.706C663.103 272.765 659.337 269.957 657.624 269.466C654.899 268.684 654.124 268.946 651.424 271.563C649.727 273.208 647.67 274.554 646.852 274.554C646.035 274.554 642.264 277.479 638.471 281.054C634.679 284.629 631.204 287.554 630.75 287.554C630.295 287.554 627.788 289.731 625.178 292.392C622.569 295.053 619.934 297.415 619.323 297.642C617.65 298.263 607.693 310.328 603.694 316.579C598.905 324.065 596.767 330.629 596.186 339.625C595.803 345.55 596.075 347.943 597.433 350.625ZM665.744 331.557C664.254 334.025 655.181 338.903 646.973 341.649C643.909 342.674 636.74 343.794 630.933 344.155C621.543 344.739 620.201 344.609 618.238 342.931C616.127 341.126 616.101 340.888 617.557 336.71C621.893 324.275 641.282 304.874 648.025 306.223C649.857 306.589 650.933 306.388 650.933 305.679C650.933 305.06 652.025 304.554 653.36 304.554C655.326 304.554 656.311 305.645 658.555 310.304C660.078 313.467 662.303 317.641 663.5 319.581C666.517 324.469 667.347 328.902 665.744 331.557Z" fill="#0B8742"/>
<path fill-rule="evenodd" clip-rule="evenodd" d="M491.927 473.253C491.93 473.913 493.396 475.842 495.183 477.54C497.859 480.082 498.997 480.527 501.626 480.056C505.33 479.393 511.933 473.943 511.933 471.548C511.933 468.943 515.069 460.217 516.669 458.367C517.472 457.439 517.863 456.249 517.537 455.722C517.211 455.195 517.617 454.506 518.439 454.19C519.261 453.875 519.933 452.928 519.933 452.085C519.933 449.263 521.416 450.534 523.407 455.063L525.381 459.554L530.907 459.538C533.946 459.53 539.133 458.871 542.433 458.074C551.288 455.936 552.933 456.078 552.933 458.983C552.933 462.043 550.535 464.484 546.792 465.232C542.722 466.046 542.616 466.761 546.016 470.483C547.813 472.451 548.792 474.423 548.473 475.429C548.102 476.596 548.982 477.664 551.374 478.952C557.652 482.333 565.773 478.969 571.041 470.806C573.948 466.302 574.083 465.651 573.617 458.326L573.125 450.598L576.59 448.457C578.496 447.279 581.077 444.701 582.326 442.726L584.598 439.137L581.221 436.846C579.364 435.585 577.4 434.554 576.857 434.554C576.315 434.554 575.607 433.868 575.286 433.03C574.849 431.894 573.846 431.667 571.334 432.139C568.422 432.685 567.847 432.451 567.084 430.412C565.869 427.161 562.357 409.787 560.891 399.771C559.983 393.572 559.216 391.24 557.839 390.504C555.97 389.503 544.005 385.591 542.743 385.567C542.364 385.56 540.388 387.917 538.353 390.804C533.321 397.945 529.615 400.762 524.706 401.178C522.464 401.368 520.514 401.643 520.372 401.789C519.232 402.958 508.933 422.081 508.933 423.029C508.933 423.699 505.097 432.193 500.407 441.905C495.718 451.617 491.61 460.92 491.278 462.579C490.946 464.238 490.314 465.819 489.872 466.092C489.431 466.365 489.711 467.818 490.495 469.321C491.279 470.824 491.924 472.594 491.927 473.253ZM545.933 436.391C545.933 436.943 544.696 437.629 543.183 437.914C538.293 438.836 526.933 439.729 526.933 439.191C526.933 437.227 540.656 417.941 541.471 418.759C541.884 419.175 545.933 435.172 545.933 436.391Z" fill="#0B8742"/>
<path d="M428.899 479.464C425.323 478.148 420.933 470.993 420.933 466.48C420.933 464.459 421.63 460.837 422.482 458.43C424.003 454.134 423.986 454.015 421.573 451.93C416.358 447.424 414.336 439.28 417.361 434.961C418.146 433.84 420.606 432.104 422.827 431.102C426.559 429.419 427.053 429.402 429.308 430.88C432.125 432.726 432.96 432.082 434.788 426.655C436.548 421.43 436.27 418.554 434.004 418.554C431.073 418.554 425.933 410.322 425.933 405.626C425.933 403.382 426.577 401.265 427.49 400.507C428.987 399.265 443.446 394.214 454.933 390.921C473.364 385.636 479.825 384.39 489.639 384.225L499.845 384.054L505.389 389.52C509.445 393.518 510.933 395.724 510.933 397.735C510.933 401.561 508.236 402.705 498.035 403.204C482.219 403.979 461.811 408.571 459.748 411.819C459.317 412.498 458.957 413.998 458.949 415.151C458.941 416.304 458.282 418.554 457.485 420.151C456.688 421.748 455.721 425.03 455.334 427.446L454.632 431.838L460.033 431.175C463.003 430.81 469.821 430.236 475.183 429.899C483.486 429.378 484.933 429.511 484.933 430.798C484.933 431.629 485.633 432.89 486.488 433.599C490.004 436.517 490.013 438.162 486.542 442.709C482.825 447.576 486.399 446.534 453.827 452.247L445.22 453.756L442.945 458.905C441.693 461.737 440.37 466.843 440.005 470.25C439.021 479.432 435.884 482.034 428.899 479.464H428.899Z" fill="#0B8742"/>
<path fill-rule="evenodd" clip-rule="evenodd" d="M613.043 466.916C619.219 472.202 633.94 478.718 648.433 482.579C656.707 484.783 657.447 484.841 661.733 483.611C666.708 482.185 668.607 479.195 668.394 473.127C668.144 465.989 666.505 463.751 660.96 462.98C649.687 461.412 636.621 457.483 630.867 453.932C627.604 451.918 624.933 449.944 624.933 449.546C624.933 449.148 629.423 447.333 634.911 445.512C653.529 439.334 659.894 434.071 660.714 424.178C661.068 419.917 660.586 417.339 658.424 411.918C655.248 403.955 651.787 397.208 650.618 396.699C650.169 396.503 648.144 394.671 646.118 392.626C644.091 390.581 640.546 387.66 638.239 386.135C634.341 383.558 633.779 383.45 630.276 384.606C626.118 385.978 617.618 393.929 613.72 400.093C612.342 402.271 609.842 405.521 608.164 407.313C605.433 410.231 604.824 410.463 602.351 409.523C600.831 408.945 599.048 408.68 598.388 408.933C597.248 409.37 596.561 411.889 591.813 433.054C590.702 438.004 589.389 443.357 588.895 444.95C588.401 446.544 588.224 448.215 588.501 448.664C588.779 449.114 588.315 452.15 587.47 455.412C585.702 462.236 585.492 467.163 586.933 468.054C587.483 468.394 587.933 470.014 587.933 471.655C587.933 474.814 589.929 477.499 593.761 479.495C595.659 480.484 596.721 480.408 599.509 479.085C603.256 477.307 605.385 473.991 606.461 468.258C606.845 466.209 607.565 464.282 608.059 463.976C608.554 463.67 610.797 464.993 613.043 466.916ZM638.915 420.554C638.908 421.465 636.455 423.002 632.669 424.466C622.637 428.348 618.048 429.549 617.381 428.469C616.465 426.987 621.232 419.582 626.239 414.708C630.191 410.861 630.954 410.495 632.873 411.522C635.298 412.819 638.932 418.252 638.915 420.554Z" fill="#0B8742"/>
<path d="M109.933 597.349C96.4582 592.401 79.8082 586.4 72.9332 584.012C66.0582 581.624 46.8358 574.778 30.2166 568.798L0 557.927L18.0441 525.99C27.9683 508.425 41.1824 485.054 47.4086 474.054C53.6349 463.054 62.6701 447.079 67.4868 438.554L76.2446 423.054L76.868 410.554C77.2109 403.679 77.6094 370.829 77.7534 337.554C78.3073 209.605 82.7099 138.406 92.5939 97.554C97.4132 77.6347 101.551 67.9364 107.967 61.5199C115.882 53.6054 121.455 57.6387 125.285 74.054C129.701 92.9769 130.93 112.869 130.966 166.056C130.998 212.006 131.168 213.924 135.545 217.67C141.144 222.461 147.306 219.609 148.759 211.554C149.205 209.079 149.665 199.404 149.781 190.054C150.797 108.219 163.645 43.7142 184.192 17.3003C191.741 7.59522 199.075 2.68484 209.115 0.612946C216.628 -0.937404 221.731 0.421191 225.8 5.05484C229.932 9.76153 231.065 14.7166 231.049 28.0244C231.028 45.2896 227.664 63.7156 213.426 124.554C207.963 147.898 203.284 171.458 201.011 187.066C197.199 213.235 198.292 222.532 205.022 221.186C212.569 219.677 216.587 213.855 220.333 198.999C229.237 163.694 242.426 133.424 260.823 106.069C284.616 70.6905 316.419 42.7714 355.659 22.8144C362.809 19.178 362.952 19.151 369.278 20.2346C377.594 21.659 384.496 25.1683 388.346 29.9284C391.167 33.4169 391.429 34.3632 391.387 40.9001C391.334 49.0083 389.433 54.241 382.069 66.554C373.843 80.3073 356.505 101.621 332.015 128.085C300.004 162.676 287.007 178.877 280.88 191.829C277.294 199.409 277.201 201.913 280.388 205.099C282.315 207.027 283.873 207.552 287.638 207.546C294.249 207.535 300.263 203.744 307.459 195.054C344.08 150.83 390.806 131.69 439.305 141.048C464.861 145.979 490.694 159.772 509.601 178.58C534.427 203.277 541.033 230.608 525.693 245.159C518.592 251.896 516.184 253.022 508.933 252.998C498.95 252.964 492.9 249.279 469.797 229.158C445.201 207.737 430.559 201.604 406.979 202.845C384.515 204.028 365.542 212.821 348.959 229.737C316.732 262.609 304.121 317.048 316.914 368.065C325.244 401.283 345.248 433.257 372.027 456.156C395.859 476.535 409.935 484.585 458.433 505.568C503.765 525.182 527.291 540.07 535.743 554.492C539.296 560.556 539.362 568.078 535.92 574.909C531.209 584.259 518.276 593.853 506.821 596.493C500.151 598.031 480.203 597.751 470.794 595.987C458.758 593.73 440.691 589.113 423.433 583.884C378.752 570.345 352.858 563.976 326.893 560.138C261.644 550.494 203.834 562.905 150.453 598.016C143.314 602.712 136.789 606.507 135.953 606.449C135.117 606.391 123.408 602.296 109.933 597.349V597.349Z" fill="#0B8742"/>
<path d="M939.926 598.863C923.138 587.628 896.998 574.551 881.235 569.5C877.277 568.232 874.309 566.755 874.64 566.219C874.971 565.684 874.761 565.542 874.173 565.906C873.585 566.269 867.579 565.217 860.826 563.568C806.643 550.337 754.24 555.986 660.528 585.158C647.707 589.15 626.11 594.497 616.433 596.077C601.123 598.576 581.857 597.709 575.433 594.233C574.333 593.637 572.873 593.056 572.189 592.941C569.87 592.552 560.937 585.395 557.551 581.214C547.59 568.913 548.12 558.274 559.267 546.745C571.736 533.85 590.452 523.256 636.452 503.058C648.542 497.749 663.833 490.685 670.433 487.359C726.526 459.095 762.188 415.115 774.065 359.554C777.116 345.281 777.409 312.855 774.611 299.09C768.872 270.858 756.078 245.54 738.967 228.554C730.365 220.015 722.984 214.831 712.626 210.054C701.931 205.121 694.753 203.472 681.433 202.888C656.636 201.801 642.511 207.935 616.433 231.116C602.033 243.916 591.768 250.914 585.016 252.534C576.583 254.557 568.866 251.693 562.13 244.04C553.048 233.722 552.61 219.77 560.847 203.099C564.921 194.854 572.73 184.311 574.125 185.173C574.748 185.558 574.965 185.415 574.616 184.85C574.113 184.036 583.067 174.826 590.933 168.066C594.989 164.581 606.75 157.166 614.013 153.514C647.987 136.432 684.609 134.188 717.746 147.158C727.458 150.96 743.438 159.613 747.215 163.115C748.662 164.456 750.168 165.554 750.562 165.554C753.013 165.554 775.181 187.135 782.677 196.818C787.796 203.43 792.922 206.75 798.897 207.325C801.607 207.585 804.917 207.524 806.252 207.189C809.276 206.43 811.294 201.881 810.348 197.958C808.714 191.188 801.138 178.71 791.978 167.704C789.265 164.443 787.357 161.463 787.739 161.082C788.121 160.7 787.959 160.537 787.38 160.721C786.801 160.904 782.828 157.004 778.55 152.054C774.273 147.104 768.836 141.029 766.467 138.554C753.49 124.995 726.066 93.1487 726.609 92.2697C726.985 91.661 726.746 91.5516 726.02 92.0001C725.243 92.4807 724.599 91.9911 724.249 90.6546C723.947 89.4993 723.357 88.554 722.937 88.554C721.467 88.554 713.846 77.5041 714.541 76.3801C714.942 75.7316 714.8 75.5186 714.21 75.8831C713.642 76.2341 711.942 74.6552 710.433 72.3746C705.928 65.5674 701.944 58.554 702.582 58.554C702.91 58.554 702.671 57.9425 702.05 57.1952C700.256 55.0335 696.933 44.5466 696.933 41.0467C696.933 37.0635 698.709 31.6476 700.825 29.1743C704.732 24.6086 716.9 19.554 723.984 19.554C727.455 19.554 745.127 28.8402 757.915 37.3833C803.128 67.5894 833.888 105.767 855.422 158.405C857.976 164.648 859.814 170.006 859.508 170.313C859.201 170.619 859.403 171.415 859.955 172.081C861.129 173.494 864.945 185.904 868.505 199.883C869.882 205.29 872.132 211.493 873.506 213.67C877.391 219.824 883.99 223.073 887.756 220.685C893.278 217.184 888.794 182.264 875.413 124.554C860.755 61.3367 857.931 45.7684 857.939 28.2245C857.946 13.9589 858.938 9.60823 863.256 4.90672C870.567 -3.05211 885.735 -0.723617 897.915 10.2275C900.676 12.7101 902.64 15.2187 902.28 15.8022C901.919 16.3857 902.077 16.583 902.631 16.2407C903.551 15.6722 906.13 19.183 911.676 28.554C916.735 37.102 923.143 55.9922 927.314 74.6566C934.144 105.215 937.635 138.756 938.804 185.054C939.403 208.76 939.777 213.55 941.241 216.29C944.251 221.924 950.75 221.436 955.343 215.231C957.387 212.47 957.436 211.39 957.565 166.731C957.695 121.468 958.586 102.886 961.501 84.5754C963.3 73.2789 965.768 64.334 966.895 65.0304C967.342 65.3065 967.646 64.7498 967.57 63.7932C967.495 62.8367 967.98 62.1611 968.647 62.292C969.323 62.4245 969.621 61.9044 969.32 61.1187C968.603 59.251 972.49 57.2261 975.394 57.9548C980.028 59.1178 989.007 71.008 987.317 73.7428C986.923 74.38 987.072 74.5863 987.663 74.2212C988.894 73.4605 990.067 76.1571 993.425 87.4639C1005.44 127.928 1010.78 206.798 1010.97 347.054C1011.01 377.304 1011.41 407.004 1011.85 413.054C1012.57 422.815 1013.01 424.65 1015.8 429.348C1017.52 432.26 1018.93 434.805 1018.93 435.005C1018.93 435.205 1021.56 439.797 1024.76 445.211C1027.97 450.625 1031.94 457.529 1033.59 460.554C1035.25 463.579 1038.7 469.751 1041.27 474.269C1043.83 478.788 1045.93 482.913 1045.93 483.436C1045.93 483.959 1046.28 484.537 1046.71 484.721C1047.14 484.904 1050.11 489.779 1053.3 495.554C1056.49 501.329 1059.51 506.729 1060 507.554C1060.49 508.379 1062.56 511.979 1064.59 515.554C1066.63 519.129 1071.51 527.679 1075.45 534.554C1085.42 551.977 1088.33 557.493 1087.81 558.013C1087.56 558.259 1079.5 561.22 1069.9 564.591C1053.57 570.321 1024.81 580.629 1009.93 586.077C1006.36 587.386 999.608 589.79 994.933 591.418C990.258 593.046 978.825 597.118 969.525 600.466C960.226 603.815 952.348 606.554 952.019 606.554C951.689 606.554 946.248 603.093 939.926 598.863V598.863Z" fill="#E11D23"/>
</svg>
